# xmcd
# 
# Track frame offsets:
#     150
#     18970
#     32970
#     51790
#     67867
#     82940
#     102722
#     118997
#     135485
#     153130
#     168620
#     190185
#     209627
# 
# Disc length: 2983
# 
# Revision: 2
# Processed by: cddbd v1.5.2PL0 Copyright (c) Steve Scherf et al.
# Submitted via: fre:ac v1.0.27
# 
DISCID=b10ba50d
DTITLE=Michael Powers - Onyx Root
DYEAR=2004
DGENRE=Blues
TTITLE0=Successful Son
TTITLE1=Can't Quit You Baby
TTITLE2=Baby's Got a Train
TTITLE3=She's About a Mover
TTITLE4=Shock
TTITLE5=Country Boy
TTITLE6=Bird on a Wire
TTITLE7=Psychotic Reaction
TTITLE8=Night in Madrid
TTITLE9=Another Man Done
TTITLE10=Graffiti
TTITLE11=All Over Town
TTITLE12=Shimmy Up
EXTD=
EXTT0=
EXTT1=
EXTT2=
EXTT3=
EXTT4=
EXTT5=
EXTT6=
EXTT7=
EXTT8=
EXTT9=
EXTT10=
EXTT11=
EXTT12=
PLAYORDER=
